<svg width="323" height="91" viewBox="0 0 323 91" fill="none" xmlns="http://www.w3.org/2000/svg">
<g clip-path="url(#clip0_389_5352)">
<path d="M174.474 90.9564C164.826 90.5419 156.633 88.8402 149.093 85.677C143.364 83.2773 137.759 79.9104 132.03 75.4455C127.537 71.9404 123.429 68.2827 115.882 61.069C114.661 59.8983 112.582 57.9203 111.266 56.6623C107.012 52.6191 106.096 51.6811 104.708 49.9431C103.45 48.3724 102.389 46.6417 101.974 45.4709C101.763 44.8819 101.654 44.2638 101.669 43.6384C101.741 43.1512 101.931 42.693 102.229 42.3004C102.679 41.6604 107.267 49.6595 107.267 49.6886C107.267 49.8195 112.894 55.6151 114.806 57.7022C117.002 60.1019 120.928 63.9341 123.509 66.1957C132.735 74.2747 142.681 79.9977 152.823 83.0737C158.508 84.8044 164.412 85.7206 170.359 85.7933H171.668C171.813 86.1133 174.939 85.9315 174.787 85.6697H174.961C175.325 85.6697 177.637 85.4152 178.873 85.2407C187.546 84.0117 197.274 80.8194 208.136 75.62C212.345 73.6057 216.024 71.6568 221.39 68.6027C226.326 65.7885 228.631 64.5595 230.994 63.4905C238.417 60.1237 244.706 59.302 251.874 60.7636C258.541 62.1962 264.801 65.0976 270.196 69.2644C271.41 70.2097 273.285 71.9259 273.155 71.9695C272.827 71.7877 272.522 71.5841 272.239 71.3442C268.116 68.1664 263.201 66.1739 258.025 65.5921C255.466 65.294 252.885 65.1849 250.311 65.2576C245.484 65.5121 240.896 66.8792 234.891 69.8462C232.39 71.0824 230.798 71.9623 225.047 75.2637C220.924 77.6343 218.234 79.0669 214.745 80.7539C202.305 86.7532 191.865 90.011 182.326 90.8618C181.061 90.9709 176.35 91.0218 174.496 90.9418L174.474 90.9564Z" fill="#FCAF17"/>
<path d="M93.2134 28.6293C93.3152 28.8038 93.4025 28.9492 93.4752 29.0656C93.5406 29.1892 93.606 29.2983 93.6569 29.4001C93.7078 29.5019 93.7151 29.5528 93.686 29.5528C92.8935 29.8655 92.1229 30.2073 91.3886 30.5854C90.647 30.9635 89.8618 31.2544 89.033 31.4653C88.1678 31.7053 87.3608 31.778 86.6047 31.6689C85.6377 31.5671 84.7435 31.2544 83.9147 30.7381C83.7111 30.5999 83.5075 30.4327 83.3185 30.2436C83.1295 30.0546 82.9477 29.8728 82.7732 29.6982L82.2061 29.131C82.068 29.5092 81.8644 29.8873 81.5881 30.2654C81.7917 30.5054 81.9953 30.7381 82.1843 30.9635C82.3733 31.189 82.5551 31.4217 82.7296 31.6616C83.0713 32.1125 83.3912 32.5706 83.6893 33.0287C83.9801 33.4941 84.2636 33.9668 84.5399 34.454C84.8162 34.934 85.0706 35.4212 85.3178 35.9011C85.5578 36.3811 85.7977 36.8828 86.0449 37.3991C86.2194 37.8136 86.3793 38.2354 86.5393 38.6644C86.6919 39.0935 86.8083 39.5371 86.8737 39.9806C87.1136 41.2241 87.0118 42.4531 86.5611 43.6747C86.1103 44.8964 85.3396 45.8417 84.2346 46.4962C83.5439 46.8744 82.8314 47.1289 82.0898 47.2452C81.3482 47.3688 80.5994 47.3907 79.8433 47.3252C78.8109 47.2598 77.793 47.0416 76.7897 46.678C75.7864 46.3144 74.8413 45.8781 73.947 45.3618C72.98 44.8091 72.0785 44.1838 71.2352 43.4711C70.3918 42.7658 69.5921 42.0168 68.8287 41.2241C67.9344 40.2933 67.0911 39.3262 66.2986 38.3299C65.5061 37.3337 64.7282 36.2938 63.9721 35.2248C63.1796 34.1195 62.4017 32.9924 61.6456 31.8362C60.8894 30.6799 60.1479 29.5164 59.4208 28.3457C59.2827 28.1711 59.1591 27.9821 59.0573 27.7785C58.9555 27.5748 58.8319 27.3858 58.6938 27.2113C58.6284 27.0731 58.5702 26.9858 58.5411 26.9495C58.3666 26.7386 58.2285 26.5204 58.1267 26.2805C57.9886 26.0768 57.8504 25.866 57.7123 25.6624C57.5742 25.4587 57.436 25.2479 57.2979 25.0442C57.2325 24.9788 57.167 24.8915 57.1161 24.7825C57.0652 24.6807 57.0071 24.5934 56.9344 24.5207C56.9344 24.4843 56.9198 24.4552 56.8835 24.4189C55.8874 23.0081 55.0732 21.6119 54.4552 20.2303C54.3897 20.0557 54.317 19.903 54.2516 19.7649C54.1135 19.4522 54.0989 19.2849 54.2007 19.2486C54.2734 19.1831 54.4043 19.2849 54.6151 19.5613C54.7169 19.6994 54.8042 19.8376 54.8769 19.9758C55.0877 20.2521 55.284 20.5357 55.473 20.8266C55.6621 21.1174 55.8438 21.401 56.0183 21.6774C56.2946 22.0919 56.5709 22.5136 56.8471 22.9427C57.1234 23.3717 57.3997 23.7935 57.6759 24.208C57.8795 24.5498 58.0904 24.877 58.2939 25.1897C58.4975 25.5024 58.7083 25.8296 58.9119 26.1714C58.9483 26.2077 58.9628 26.2296 58.9628 26.2514C58.9628 26.2732 58.9773 26.295 59.0137 26.3314C59.0864 26.4695 59.1518 26.5931 59.2173 26.695C59.29 26.7968 59.3554 26.8986 59.4281 27.0076C59.7407 27.4949 60.0461 27.9748 60.3587 28.4547C60.6713 28.942 60.9985 29.4219 61.3402 29.9018C61.3766 29.9382 61.4275 30.0255 61.4929 30.1636C61.5583 30.2654 61.6383 30.3672 61.7255 30.4763C61.8128 30.5781 61.8855 30.7017 61.9582 30.8399C62.1327 31.0799 62.2999 31.3126 62.4744 31.538C62.6489 31.7634 62.8161 31.9961 62.9906 32.2361C63.0269 32.2361 63.0415 32.2507 63.0415 32.287C63.0778 32.3597 63.1651 32.4615 63.3032 32.5997C63.3686 32.7015 63.4486 32.8179 63.5359 32.9342C63.6231 33.0578 63.7176 33.1669 63.8194 33.2687C63.9939 33.4723 64.1756 33.6905 64.3647 33.9159C64.5537 34.1413 64.7355 34.3522 64.9099 34.5631C65.0117 34.7013 65.1135 34.8249 65.2226 34.9267C65.3244 35.0285 65.4261 35.1303 65.5352 35.2394L65.637 35.3412C65.7024 35.4139 65.746 35.4648 65.7679 35.4939C65.7824 35.5303 65.826 35.5812 65.8987 35.6466C66.1096 35.8502 66.3131 36.0538 66.5167 36.2429C66.7275 36.432 66.9311 36.6283 67.1347 36.8392C67.9271 37.53 68.756 38.1845 69.6139 38.8026C70.4718 39.4207 71.4024 39.9588 72.4057 40.4024C73.3726 40.7805 74.3905 41.0714 75.4592 41.2823C76.528 41.4932 77.5822 41.5077 78.6146 41.3332C79.3052 41.2314 79.945 41.0351 80.5267 40.7369C81.1156 40.446 81.6463 40.0534 82.1261 39.5734C82.8823 38.6426 83.3476 37.5736 83.5221 36.3665C83.5584 36.1629 83.5729 35.9593 83.5729 35.7702V35.0721C83.1585 34.7958 82.6787 34.5195 82.1261 34.2431C81.3991 33.9305 80.6503 33.7196 79.8796 33.5959C79.1017 33.4723 78.3165 33.4505 77.524 33.516C76.7315 33.8286 75.91 34.0177 75.0666 34.0832C74.2233 34.1559 73.3872 34.0686 72.5584 33.8214C72.4202 33.7559 72.2966 33.625 72.1948 33.436C72.0931 33.2469 72.0058 33.1015 71.9331 32.9997C71.7586 32.6215 71.5914 32.2579 71.4169 31.9161C71.2424 31.5744 71.0752 31.2108 70.9007 30.8326C70.7262 30.4545 70.5736 30.0764 70.4354 29.6982C70.2973 29.3201 70.1591 28.942 70.021 28.5638C70.021 28.6002 70.0137 28.5638 69.9919 28.462C69.9774 28.3602 69.9483 28.2366 69.912 28.0984C69.8756 27.9603 69.8538 27.8294 69.832 27.713C69.8174 27.5894 69.8247 27.5312 69.8611 27.5312C70.0355 27.6039 70.2173 27.6548 70.4063 27.6839C70.5954 27.7203 70.7771 27.7566 70.9516 27.7857C71.9477 27.9239 72.9437 27.8439 73.9252 27.553C74.9067 27.2622 75.8155 26.8186 76.637 26.2368C77.4295 25.6842 78.1202 25.0224 78.7018 24.2443C79.2907 23.4663 79.7051 22.6154 79.945 21.6846V21.6337C79.945 21.6337 79.8869 21.5828 79.8651 21.5828C79.8433 21.5828 79.8214 21.5683 79.7851 21.5319C79.7487 21.4956 79.7197 21.481 79.6833 21.481C78.68 20.9284 77.6331 20.6593 76.528 20.6811C75.4229 20.6957 74.3541 20.9284 73.3217 21.3792C72.2894 21.8301 71.3515 22.4336 70.5009 23.1899C69.6575 23.9462 68.9959 24.8115 68.5088 25.7787C68.5088 25.8151 68.4652 25.7787 68.3779 25.6769C68.2907 25.5751 68.2107 25.4733 68.1453 25.3642C68.0726 25.2624 68.0144 25.1606 67.9635 25.0515C67.9126 24.9497 67.8835 24.9134 67.8835 24.9497C67.709 24.5716 67.5418 24.208 67.3673 23.8662C67.1928 23.5244 67.0256 23.1608 66.8511 22.7827C66.6766 22.4046 66.524 22.0264 66.3858 21.6483C66.2477 21.2702 66.1096 20.892 65.9714 20.5139C65.9351 20.4121 65.8842 20.2448 65.8187 20.0194C65.746 19.794 65.746 19.634 65.8187 19.5249C66.1968 18.7977 66.6766 18.1214 67.2655 17.4815C67.8544 16.8416 68.4942 16.3035 69.2067 15.8526C69.912 15.4018 70.6681 15.06 71.4824 14.82C72.2894 14.58 73.1109 14.4564 73.9397 14.4564C75.0739 14.4564 76.1281 14.7328 77.0951 15.2854C77.684 15.6272 78.1783 15.9908 78.5928 16.3689C78.869 16.6453 79.1162 16.9579 79.3416 17.2997C79.567 17.6415 79.7778 18.0051 79.9887 18.3832C80.4685 19.2486 80.9193 20.1357 81.3337 21.0447C81.7481 21.9537 82.0898 22.899 82.3661 23.8662C82.606 24.5207 82.7587 25.2479 82.8314 26.0405C82.8677 26.1423 82.8823 26.3023 82.8823 26.5059C83.9874 26.5059 85.0634 26.2586 86.1103 25.7569C87.1645 25.2551 88.2187 24.7825 89.2874 24.3316C89.3892 24.2952 89.5346 24.3825 89.7237 24.5934C89.9127 24.797 90.0436 24.9206 90.109 24.957C90.3853 25.2333 90.6543 25.5242 90.9087 25.8369C91.1705 26.1496 91.4322 26.4404 91.7085 26.7168C91.9847 27.0295 92.2392 27.3349 92.4864 27.6476C92.7336 27.9603 92.9663 28.2875 93.2134 28.6293ZM57.0216 24.6516V24.7025C57.0943 24.7679 57.1452 24.8334 57.1743 24.8843C57.2106 24.9352 57.1598 24.8552 57.0216 24.6516Z" fill="#FCAF17"/>
<path d="M99.008 20.6157C99.1098 20.8193 99.197 20.9938 99.2697 21.132C99.4079 21.4447 99.4442 21.5974 99.3715 21.5974H94.4059C94.4422 22.5282 94.4495 23.4517 94.4349 24.3607C94.4204 25.277 94.4277 26.1932 94.464 27.124C94.464 27.953 94.4568 28.782 94.4349 29.6037C94.4204 30.4327 94.4277 31.2617 94.464 32.0834C94.5004 32.876 94.544 33.6832 94.5949 34.5122C94.6458 35.3412 94.6749 36.1484 94.6749 36.941C94.6749 37.8354 94.653 38.7444 94.624 39.6534C94.5876 40.5697 94.4349 41.4714 94.1587 42.3658C93.9551 43.0203 93.6497 43.6311 93.2571 44.2056C92.8573 44.7728 92.2975 45.1291 91.5777 45.2673H91.5268L94.5222 48.576L94.3186 48.7796L90.4435 44.591C89.8546 44.1401 89.3239 43.6602 88.844 43.1439L88.0152 42.3149C87.7389 42.0386 87.4627 41.7477 87.1864 41.435C87.0483 41.2605 86.9465 41.1223 86.8738 41.0205C86.8083 40.9187 86.7356 40.8169 86.6702 40.7078C86.6048 40.606 86.583 40.5551 86.6193 40.5551C87.1355 40.4533 87.5645 40.2424 87.9134 39.937C88.2551 39.6243 88.546 39.2535 88.7641 38.8244C88.9894 38.3954 89.1639 37.9373 89.2803 37.4573C89.4039 36.9774 89.4984 36.512 89.5638 36.0611C89.7019 35.1667 89.7819 34.2432 89.7965 33.2978C89.811 32.3525 89.7892 31.4071 89.7165 30.4763C89.6801 29.7855 89.6365 29.0874 89.5856 28.382C89.5347 27.6767 89.5056 26.9786 89.5056 26.2877V21.5828H84.2855C84.1474 21.5828 84.002 21.4883 83.8493 21.2992C83.6966 21.1102 83.5803 20.9793 83.5149 20.9138C83.035 20.3248 82.5697 19.6704 82.119 18.9504C81.6391 18.2233 81.2247 17.5397 80.8757 16.8852C80.7739 16.7107 80.6867 16.558 80.614 16.4198C80.4759 16.0781 80.4395 15.9035 80.5122 15.9035H89.4547V15.409C89.4547 15.2563 89.4402 15.0891 89.4039 14.9146C89.4039 14.8782 89.4547 14.8855 89.5565 14.9436C89.6583 14.9945 89.7746 15.0673 89.891 15.1473C90.0146 15.2345 90.16 15.3291 90.3272 15.4309C90.429 15.5327 90.618 15.6926 90.8943 15.8963H95.5982C95.7363 15.8963 95.8817 15.9981 96.0344 16.2089C96.1871 16.4126 96.3034 16.5507 96.3689 16.6234C96.6088 16.9361 96.8414 17.2561 97.0668 17.5833C97.2922 17.9106 97.5248 18.2451 97.7648 18.5941C97.9683 18.9068 98.1864 19.234 98.4118 19.5758C98.6372 19.9176 98.8335 20.2666 99.008 20.6084V20.6157Z" fill="#FCAF17"/>
<path d="M149.522 15.9108C149.624 16.0489 149.697 16.158 149.726 16.2453C149.762 16.3325 149.777 16.398 149.777 16.4489C149.777 16.4998 149.704 16.4925 149.573 16.4198C149.472 16.3834 149.282 16.3325 149.006 16.2671C148.519 16.2307 148.061 16.318 147.61 16.5289C147.16 16.7325 146.745 16.9797 146.367 17.2561C145.916 17.5687 145.451 17.8669 144.971 18.165C144.484 18.4559 143.968 18.6377 143.423 18.7104C142.732 18.8486 142.056 18.8486 141.38 18.7104C140.711 18.5723 140.042 18.3686 139.388 18.0923C137.904 17.5033 136.559 16.8197 135.352 16.0271C134.524 15.5108 133.717 14.9581 132.924 14.3691C132.132 13.7801 131.354 13.1984 130.598 12.6093C130.118 12.2312 129.66 11.8676 129.231 11.5258C128.802 11.1841 128.358 10.8205 127.915 10.4423C127.849 10.3769 127.77 10.3042 127.682 10.2314C127.595 10.166 127.501 10.0933 127.399 10.0278C127.224 9.88967 127.064 9.75877 126.904 9.64242C126.752 9.5188 126.584 9.39518 126.417 9.25701C126.243 9.08249 126.076 8.93705 125.901 8.8207C125.727 8.69708 125.538 8.55164 125.334 8.38439C125.232 8.28259 125.109 8.19532 124.97 8.12261C124.898 8.05716 124.832 7.99898 124.76 7.9699C124.585 7.83173 124.418 7.70811 124.243 7.6063C124.069 7.5045 123.902 7.39542 123.727 7.29361C123.691 7.25725 123.669 7.24271 123.647 7.24271C123.625 7.24271 123.604 7.22817 123.567 7.19181C123.502 7.12636 123.422 7.08273 123.335 7.06091C123.247 7.04637 123.167 7.00274 123.102 6.93002C122.586 6.65369 122.04 6.42099 121.473 6.23192C120.906 6.04285 120.325 5.91196 119.743 5.84651C118.26 5.67199 116.849 5.93378 115.504 6.6246C114.814 7.00274 114.188 7.43178 113.614 7.91899C113.04 8.40621 112.502 8.93705 111.986 9.5188C111.055 10.5514 110.212 11.6422 109.455 12.7766C108.699 13.911 107.921 15.0672 107.129 16.238C107.194 16.3107 107.26 16.3762 107.311 16.4416C107.362 16.5143 107.405 16.5652 107.442 16.5943C107.718 16.907 107.965 17.227 108.19 17.5542C108.416 17.8814 108.648 18.2159 108.888 18.565C109.092 18.9068 109.303 19.2485 109.506 19.5758C109.71 19.903 109.921 20.2593 110.124 20.6375L110.328 21.1538C110.466 21.4665 110.502 21.6192 110.43 21.6192H104.584C104.621 22.7245 104.635 23.808 104.635 24.877V28.1348C104.635 28.9637 104.628 29.7927 104.606 30.6145C104.592 31.4434 104.599 32.2724 104.635 33.0942C104.701 33.8868 104.759 34.694 104.788 35.523C104.824 36.3519 104.839 37.1591 104.839 37.9518C104.875 38.8462 104.868 39.7552 104.81 40.6642C104.759 41.5804 104.592 42.4821 104.315 43.3766C104.141 44.031 103.85 44.6491 103.436 45.2382C103.021 45.8272 102.454 46.1835 101.727 46.3217H101.676L104.73 49.5795L104.468 49.7831L100.593 45.5945L99.0443 44.1983C98.7681 43.9219 98.4918 43.6383 98.2155 43.3475C97.9392 43.0566 97.663 42.7512 97.3867 42.4385C97.2486 42.3003 97.125 42.1622 97.0232 42.024C96.8196 41.7477 96.7469 41.595 96.8196 41.5586C97.3358 41.4568 97.7575 41.2459 98.0847 40.9405C98.4118 40.6278 98.6881 40.2569 98.9135 39.8279C99.1389 39.3989 99.3133 38.9407 99.4297 38.4608C99.5533 37.9808 99.6478 37.5154 99.7132 37.0646C99.8513 36.1702 99.9241 35.2539 99.9459 34.3231C99.9604 33.3923 99.9386 32.4615 99.8659 31.5307C99.8295 30.8035 99.8005 30.0909 99.7641 29.3855C99.7278 28.6801 99.7132 27.982 99.7132 27.2912V21.6046H93.8679C93.7297 21.6046 93.5916 21.5028 93.4534 21.2919C93.3153 21.0883 93.2135 20.9502 93.1408 20.8774C92.5883 20.223 92.123 19.583 91.7449 18.9649C91.505 18.6232 91.2796 18.2741 91.076 17.9323C90.8652 17.5906 90.6616 17.2415 90.4581 16.8997C90.3926 16.6961 90.3272 16.5289 90.2763 16.4125C90.2254 16.2962 90.1818 16.1798 90.1454 16.078C90.1091 15.9762 90.1091 15.9253 90.1454 15.9253H98.2083C98.1065 15.7871 97.9756 15.6126 97.8229 15.409C97.6702 15.1981 97.6266 15.0672 97.6921 14.9945C97.7648 14.9291 97.8375 14.8418 97.9247 14.7327C98.012 14.6309 98.0919 14.5437 98.1574 14.4709C98.9135 13.5765 99.6114 12.6457 100.251 11.6785C100.891 10.7114 101.538 9.73696 102.192 8.75526C102.847 7.77356 103.508 6.8064 104.184 5.86106C104.853 4.91572 105.609 4.02855 106.431 3.19956C107.122 2.47237 107.892 1.83245 108.758 1.25797C109.615 0.690769 110.546 0.319904 111.549 0.14538C112.858 -0.0945917 114.109 -0.0146013 115.301 0.378079C116.493 0.778031 117.635 1.3016 118.74 1.95607C119.532 2.43601 120.31 2.97413 121.066 3.56315C121.822 4.15217 122.564 4.73392 123.291 5.32294C123.742 5.70108 124.178 6.0574 124.607 6.38463C125.036 6.71186 125.479 7.06819 125.923 7.44632L125.974 7.49723C126.039 7.56994 126.119 7.63539 126.206 7.70084C126.294 7.77356 126.366 7.839 126.439 7.91172C126.614 8.04989 126.781 8.18078 126.955 8.29713C127.13 8.42075 127.297 8.54437 127.471 8.68254C127.573 8.78434 127.762 8.94432 128.039 9.14794C128.104 9.1843 128.169 9.22793 128.22 9.27883C128.271 9.32973 128.329 9.37336 128.402 9.40972C128.54 9.51153 128.671 9.60606 128.787 9.69333C128.911 9.78059 129.035 9.86058 129.173 9.92602C129.347 10.0642 129.529 10.1951 129.718 10.3114C129.907 10.4351 130.103 10.5587 130.314 10.6968C130.452 10.7696 130.54 10.8205 130.576 10.8496C130.612 10.8496 130.627 10.8568 130.627 10.8786C130.627 10.9005 130.641 10.9077 130.678 10.9077C130.881 11.0459 131.041 11.1332 131.143 11.1695C131.521 11.3804 131.906 11.5767 132.306 11.7658C132.699 11.9549 133.106 12.1367 133.52 12.3112C133.898 12.4857 134.269 12.6312 134.633 12.7475C134.996 12.8711 135.367 12.9657 135.745 13.0311C136.16 13.0675 136.581 13.0675 137.01 13.0311C137.439 12.9947 137.846 12.8929 138.224 12.7184C138.566 12.5803 138.893 12.4203 139.206 12.2239C139.518 12.0349 139.824 11.8385 140.136 11.6276C140.725 11.2495 141.329 10.9295 141.947 10.6678C142.565 10.406 143.219 10.4351 143.91 10.7477C144.186 10.8496 144.455 11.0168 144.709 11.2422C144.964 11.4677 145.218 11.6785 145.458 11.8894C145.873 12.2312 146.265 12.5875 146.651 12.9511C147.029 13.3147 147.407 13.6856 147.785 14.0637C148.097 14.3764 148.388 14.6745 148.665 14.9727C148.941 15.2636 149.217 15.5835 149.493 15.9326L149.522 15.9108ZM123.72 7.2718C123.647 7.20635 123.589 7.16272 123.538 7.1409C123.487 7.12636 123.545 7.16999 123.72 7.2718Z" fill="#FCAF17"/>
<path d="M142.536 20.6666C142.637 20.8774 142.725 21.0447 142.797 21.1829C142.935 21.4956 142.972 21.6483 142.899 21.6483H110.117C109.979 21.6483 109.834 21.5537 109.681 21.3647C109.528 21.1756 109.412 21.0447 109.346 20.9792C109.07 20.6666 108.83 20.3539 108.619 20.0194C108.416 19.6921 108.19 19.3576 107.95 19.0086C107.471 18.2814 107.056 17.5978 106.707 16.9434C106.605 16.7688 106.518 16.6161 106.446 16.478C106.307 16.1362 106.271 15.9617 106.344 15.9617H139.126C139.3 15.9617 139.453 16.0562 139.591 16.2453C139.729 16.4343 139.831 16.5798 139.904 16.6816C140.18 16.9579 140.42 17.2561 140.631 17.5906C140.834 17.9178 141.06 18.2523 141.3 18.6014C141.779 19.3285 142.194 20.0121 142.543 20.6666H142.536ZM130.438 31.5234C130.612 31.9016 130.779 32.2724 130.954 32.636C131.128 32.9996 131.281 33.3705 131.419 33.7486C131.485 33.8504 131.565 34.0104 131.652 34.214C131.739 34.4176 131.746 34.5922 131.681 34.7303C131.608 34.8685 131.565 34.9994 131.55 35.1157C131.536 35.2394 131.492 35.3484 131.419 35.4502C131.143 36.0393 130.823 36.6137 130.46 37.1809C130.096 37.7481 129.711 38.279 129.296 38.7589C128.809 39.377 128.286 39.9733 127.719 40.5405C127.152 41.1077 126.57 41.6531 125.988 42.1694C124.781 43.2384 123.509 44.1547 122.164 44.9109C121.575 45.2527 120.957 45.5508 120.303 45.7908C119.649 46.0308 118.972 46.2053 118.289 46.3071C117.017 46.4816 115.89 46.2562 114.93 45.6381C114.552 45.3618 114.232 45.0636 113.97 44.7364C113.709 44.4092 113.461 44.0528 113.222 43.6747C112.494 42.5039 111.862 41.2823 111.309 40.0024C111.069 39.5516 110.859 39.0934 110.691 38.6353C110.517 38.1699 110.35 37.6972 110.175 37.21C109.834 36.1774 109.666 35.123 109.681 34.054C109.695 32.9851 109.899 31.9525 110.277 30.949C110.691 29.9454 111.288 29.051 112.058 28.2584C112.836 27.4657 113.701 26.8258 114.668 26.3459C115.672 25.8296 116.719 25.4369 117.824 25.1824C118.929 24.9279 120.027 24.7752 121.132 24.7461C122.135 24.7097 123.124 24.797 124.105 25.0079C125.087 25.2187 125.959 25.6478 126.715 26.3022C126.919 26.4768 127.086 26.6804 127.21 26.9204C127.333 27.1603 127.457 27.4003 127.595 27.6475C127.769 27.8875 127.915 28.142 128.031 28.3965C128.155 28.6583 128.278 28.9201 128.417 29.1964C128.482 29.0219 128.555 28.8329 128.62 28.6292C128.795 28.702 128.911 28.8183 128.984 28.9928C129.122 29.1964 129.224 29.3346 129.296 29.4073C129.5 29.7491 129.703 30.0982 129.892 30.4399C130.081 30.7817 130.263 31.1453 130.438 31.5234ZM126.926 31.7852C126.992 31.7198 127.064 31.6325 127.13 31.5234C127.195 31.4216 127.268 31.3198 127.341 31.2107C126.584 30.9708 125.719 30.8472 124.752 30.8472C123.444 30.8108 122.142 30.949 120.848 31.2617C119.554 31.5743 118.34 32.0543 117.206 32.7088C116.101 33.3632 115.17 34.1995 114.414 35.2175C113.658 36.2356 113.142 37.3627 112.865 38.6062C112.829 38.8462 112.807 39.0716 112.785 39.2752C112.771 39.4788 112.756 39.7043 112.756 39.9442C113.345 40.1842 113.927 40.3006 114.516 40.2788C115.105 40.2642 115.686 40.1697 116.275 39.9952C116.966 39.7843 117.635 39.5298 118.289 39.2171C118.943 38.9044 119.561 38.5626 120.15 38.1845C120.841 37.7336 121.495 37.2609 122.113 36.7592C122.731 36.2574 123.335 35.7338 123.923 35.1812C124.476 34.6649 124.999 34.1195 125.501 33.5523C126.003 32.9851 126.475 32.3888 126.926 31.7707V31.7852Z" fill="#FCAF17"/>
<path d="M136.283 20.6157C136.385 20.8193 136.472 20.9938 136.545 21.132C136.683 21.4447 136.719 21.5974 136.646 21.5974H131.681C131.717 22.5282 131.724 23.4517 131.71 24.3607C131.695 25.277 131.703 26.1932 131.739 27.124C131.739 27.953 131.732 28.782 131.71 29.6037C131.695 30.4327 131.703 31.2617 131.739 32.0834C131.775 32.876 131.819 33.6832 131.87 34.5122C131.921 35.3412 131.95 36.1484 131.95 36.941C131.95 37.8354 131.928 38.7444 131.899 39.6534C131.863 40.5697 131.71 41.4714 131.434 42.3658C131.23 43.0203 130.925 43.6311 130.532 44.2056C130.132 44.7728 129.572 45.1291 128.853 45.2673H128.802L131.797 48.576L131.594 48.7796L127.718 44.591C127.13 44.1401 126.599 43.6602 126.119 43.1439L125.29 42.3149C125.014 42.0386 124.738 41.7477 124.461 41.435C124.323 41.2605 124.221 41.1223 124.149 41.0205C124.083 40.9187 124.011 40.8169 123.945 40.7078C123.88 40.606 123.858 40.5551 123.894 40.5551C124.41 40.4533 124.839 40.2424 125.188 39.937C125.53 39.6243 125.821 39.2535 126.039 38.8244C126.264 38.3954 126.439 37.9373 126.555 37.4573C126.679 36.9774 126.773 36.512 126.839 36.0611C126.977 35.1667 127.057 34.2432 127.071 33.2978C127.086 32.3525 127.064 31.4071 126.991 30.4763C126.955 29.7855 126.911 29.0874 126.861 28.382C126.81 27.6767 126.781 26.9786 126.781 26.2877V21.5828H121.56C121.422 21.5828 121.277 21.4883 121.124 21.2992C120.972 21.1102 120.855 20.9793 120.79 20.9138C120.31 20.3248 119.845 19.6704 119.394 18.9504C118.914 18.2233 118.5 17.5397 118.151 16.8852C118.049 16.7107 117.962 16.558 117.889 16.4198C117.751 16.0781 117.714 15.9035 117.787 15.9035H126.73V15.409C126.73 15.2563 126.715 15.0891 126.679 14.9146C126.679 14.8782 126.73 14.8855 126.831 14.9436C126.933 14.9945 127.05 15.0673 127.166 15.1473C127.289 15.2345 127.435 15.3291 127.602 15.4309C127.704 15.5327 127.893 15.6926 128.169 15.8963H132.873C133.011 15.8963 133.157 15.9981 133.309 16.2089C133.462 16.4126 133.578 16.5507 133.644 16.6234C133.884 16.9361 134.116 17.2561 134.342 17.5833C134.567 17.9106 134.8 18.2451 135.04 18.5941C135.243 18.9068 135.461 19.234 135.687 19.5758C135.912 19.9176 136.108 20.2666 136.283 20.6084V20.6157Z" fill="#FCAF17"/>
<path d="M162.907 21.1319C163.045 21.4446 163.082 21.5973 163.009 21.5973H159.701L159.752 21.6482C160.028 21.99 160.282 22.339 160.53 22.6808C160.77 23.0226 161.031 23.3862 161.308 23.7643C161.409 23.9388 161.511 24.1061 161.62 24.2806C161.722 24.4551 161.824 24.6224 161.933 24.7969C161.998 24.9351 162.056 25.0587 162.086 25.1605C162.187 25.6405 162.231 26.1495 162.216 26.6876C162.202 27.2257 162.049 27.7275 161.78 28.2147C161.504 28.731 161.133 29.1891 160.668 29.5818C160.203 29.9818 159.708 30.3163 159.192 30.5926C158.501 30.9344 157.811 31.2325 157.127 31.4725C156.436 31.7125 155.731 31.9379 155.004 32.1415C153.456 32.6214 151.893 33.0359 150.322 33.385C148.752 33.734 147.21 34.214 145.698 34.8321C145.56 34.8975 145.429 34.963 145.313 35.0139C145.189 35.0648 145.066 35.1302 144.928 35.1957C145.24 35.6102 145.538 36.0319 145.836 36.461C146.127 36.89 146.396 37.3336 146.636 37.7772C146.949 38.2935 147.232 38.8389 147.487 39.4061C147.741 39.9733 147.959 40.5696 148.134 41.1877C148.236 41.6676 148.294 42.1548 148.315 42.6348C148.33 43.1147 148.286 43.6019 148.185 44.0819C147.908 45.0127 147.356 45.718 146.527 46.2053C145.662 46.6561 144.818 46.7434 143.997 46.4671C143.619 46.3652 143.306 46.1907 143.066 45.9507C142.514 45.4999 142.012 45.0127 141.569 44.4746C141.118 43.9437 140.689 43.3983 140.274 42.8457C139.722 42.0894 139.198 41.3113 138.697 40.5187C138.195 39.726 137.824 38.8825 137.584 37.9881C137.446 37.5372 137.359 37.0936 137.323 36.6428C137.286 36.1919 137.272 35.7338 137.272 35.2466C137.272 34.8321 137.301 34.4176 137.352 34.0031C137.403 33.5886 137.512 33.1959 137.686 32.8105C137.897 32.2288 138.195 31.727 138.595 31.3125C138.988 30.898 139.446 30.5344 139.962 30.229C140.58 29.8509 141.227 29.5309 141.903 29.2691C142.572 29.0073 143.255 28.7746 143.946 28.571C145.495 28.0911 147.058 27.6766 148.628 27.3275C150.199 26.9858 151.754 26.5204 153.31 25.9313C153.826 25.7277 154.35 25.495 154.888 25.2332C155.419 24.9714 155.906 24.6733 156.335 24.3315C156.764 23.9897 157.134 23.5898 157.447 23.1389C157.76 22.6881 157.963 22.1718 158.065 21.59H133.768C133.629 21.59 133.484 21.4882 133.331 21.2773C133.179 21.0737 133.062 20.9356 132.997 20.8628C132.444 20.2084 131.979 19.5685 131.601 18.9503C131.361 18.6086 131.136 18.2595 130.932 17.9177C130.721 17.576 130.539 17.2269 130.365 16.8851C130.263 16.7106 130.176 16.5579 130.103 16.4197C129.965 16.078 129.929 15.9034 130.001 15.9034H159.316C159.454 15.9034 159.592 15.998 159.73 16.187C159.868 16.3761 159.97 16.507 160.043 16.5725C160.319 16.9142 160.566 17.2415 160.791 17.5542C161.017 17.8668 161.249 18.1941 161.489 18.5359C161.7 18.8776 161.904 19.2194 162.107 19.5466C162.311 19.8739 162.522 20.2302 162.725 20.6083L162.929 21.1246L162.907 21.1319ZM143.001 40.366C143.415 39.9878 143.713 39.5588 143.902 39.0716C144.091 38.5916 144.186 38.0681 144.186 37.5227C144.186 36.9773 144.099 36.3883 143.924 35.7629C143.437 36.0392 142.979 36.4319 142.528 36.9555C142.041 37.4718 141.729 38.0681 141.569 38.7371C141.416 39.4061 141.336 40.0896 141.336 40.7805V41.1441C141.954 41.0422 142.506 40.7805 142.994 40.366H143.001Z" fill="#FCAF17"/>
<path d="M167.611 20.6157C167.713 20.8193 167.8 20.9938 167.873 21.132C168.011 21.4447 168.047 21.5974 167.975 21.5974H163.009C163.045 22.5282 163.053 23.4517 163.038 24.3607C163.023 25.277 163.031 26.1932 163.067 27.124C163.067 27.953 163.06 28.782 163.038 29.6037C163.023 30.4327 163.031 31.2617 163.067 32.0834C163.103 32.876 163.147 33.6832 163.198 34.5122C163.249 35.3412 163.278 36.1484 163.278 36.941C163.278 37.8354 163.256 38.7444 163.227 39.6534C163.191 40.5697 163.038 41.4714 162.762 42.3658C162.558 43.0203 162.253 43.6311 161.86 44.2056C161.46 44.7728 160.9 45.1291 160.181 45.2673H160.13L163.125 48.576L162.922 48.7796L159.047 44.591C158.458 44.1401 157.927 43.6602 157.447 43.1439L156.618 42.3149C156.342 42.0386 156.066 41.7477 155.789 41.435C155.651 41.2605 155.55 41.1223 155.477 41.0205C155.411 40.9187 155.339 40.8169 155.273 40.7078C155.208 40.606 155.186 40.5551 155.222 40.5551C155.739 40.4533 156.167 40.2424 156.516 39.937C156.858 39.6243 157.149 39.2535 157.367 38.8244C157.592 38.3954 157.767 37.9373 157.883 37.4573C158.007 36.9774 158.101 36.512 158.167 36.0611C158.305 35.1667 158.385 34.2432 158.399 33.2978C158.414 32.3525 158.392 31.4071 158.319 30.4763C158.283 29.7855 158.24 29.0874 158.189 28.382C158.138 27.6767 158.109 26.9786 158.109 26.2877V21.5828H152.889C152.75 21.5828 152.605 21.4883 152.452 21.2992C152.3 21.1102 152.183 20.9793 152.118 20.9138C151.638 20.3248 151.173 19.6704 150.722 18.9504C150.242 18.2233 149.828 17.5397 149.479 16.8852C149.377 16.7107 149.29 16.558 149.217 16.4198C149.079 16.0781 149.043 15.9035 149.115 15.9035H158.058V15.409C158.058 15.2563 158.043 15.0891 158.007 14.9146C158.007 14.8782 158.058 14.8855 158.16 14.9436C158.261 14.9945 158.378 15.0673 158.494 15.1473C158.618 15.2345 158.763 15.3291 158.93 15.4309C159.032 15.5327 159.221 15.6926 159.497 15.8963H164.201C164.339 15.8963 164.485 15.9981 164.637 16.2089C164.79 16.4126 164.906 16.5507 164.972 16.6234C165.212 16.9361 165.444 17.2561 165.67 17.5833C165.895 17.9106 166.128 18.2451 166.368 18.5941C166.571 18.9068 166.789 19.234 167.015 19.5758C167.24 19.9176 167.437 20.2666 167.611 20.6084V20.6157Z" fill="#FCAF17"/>
<path d="M177.957 20.6157C178.059 20.8193 178.146 20.9938 178.218 21.132C178.357 21.4447 178.393 21.5974 178.32 21.5974H173.355C173.391 22.5282 173.398 23.4517 173.384 24.3607C173.369 25.277 173.376 26.1932 173.413 27.124C173.413 27.953 173.405 28.782 173.384 29.6037C173.369 30.4327 173.376 31.2617 173.413 32.0834C173.449 32.876 173.493 33.6832 173.544 34.5122C173.595 35.3412 173.624 36.1484 173.624 36.941C173.624 37.8354 173.602 38.7444 173.573 39.6534C173.536 40.5697 173.384 41.4714 173.107 42.3658C172.904 43.0203 172.598 43.6311 172.206 44.2056C171.806 44.7728 171.246 45.1291 170.526 45.2673H170.476L173.471 48.576L173.267 48.7796L169.392 44.591C168.803 44.1401 168.273 43.6602 167.793 43.1439L166.964 42.3149C166.688 42.0386 166.411 41.7477 166.135 41.435C165.997 41.2605 165.895 41.1223 165.823 41.0205C165.757 40.9187 165.684 40.8169 165.619 40.7078C165.553 40.606 165.532 40.5551 165.568 40.5551C166.084 40.4533 166.513 40.2424 166.862 39.937C167.204 39.6243 167.495 39.2535 167.713 38.8244C167.938 38.3954 168.113 37.9373 168.229 37.4573C168.353 36.9774 168.447 36.512 168.513 36.0611C168.651 35.1667 168.731 34.2432 168.745 33.2978C168.76 32.3525 168.738 31.4071 168.665 30.4763C168.629 29.7855 168.585 29.0874 168.534 28.382C168.483 27.6767 168.454 26.9786 168.454 26.2877V21.5828H163.234C163.096 21.5828 162.951 21.4883 162.798 21.2992C162.645 21.1102 162.529 20.9793 162.464 20.9138C161.984 20.3248 161.518 19.6704 161.068 18.9504C160.588 18.2233 160.173 17.5397 159.824 16.8852C159.723 16.7107 159.635 16.558 159.563 16.4198C159.425 16.0781 159.388 15.9035 159.461 15.9035H168.403V15.409C168.403 15.2563 168.389 15.0891 168.353 14.9146C168.353 14.8782 168.403 14.8855 168.505 14.9436C168.607 14.9945 168.723 15.0673 168.84 15.1473C168.963 15.2345 169.109 15.3291 169.276 15.4309C169.378 15.5327 169.567 15.6926 169.843 15.8963H174.547C174.685 15.8963 174.83 15.9981 174.983 16.2089C175.136 16.4126 175.252 16.5507 175.318 16.6234C175.558 16.9361 175.79 17.2561 176.016 17.5833C176.241 17.9106 176.474 18.2451 176.713 18.5941C176.917 18.9068 177.135 19.234 177.361 19.5758C177.586 19.9176 177.782 20.2666 177.957 20.6084V20.6157Z" fill="#FCAF17"/>
<path d="M202.77 20.6156C202.872 20.8193 202.959 20.9938 203.032 21.1319C203.17 21.4446 203.207 21.5973 203.134 21.5973H185.656V22.4263C185.794 22.6009 185.925 22.7827 186.041 22.9717C186.165 23.1608 186.274 23.3571 186.376 23.568C186.965 24.4334 187.539 25.2914 188.106 26.1568C188.673 27.0221 189.357 27.793 190.149 28.4838C190.803 29.0364 191.509 29.4291 192.272 29.6764C192.41 29.7127 192.512 29.8509 192.585 30.0909C192.65 30.3308 192.708 30.4908 192.737 30.5563C192.977 31.3489 193.188 32.127 193.355 32.8833C193.559 33.6395 193.719 34.4322 193.821 35.2612C193.857 35.2612 193.886 35.2757 193.922 35.3121C194.3 35.4866 194.664 35.6684 195.006 35.8575C195.347 36.0465 195.696 36.2429 196.038 36.4537C196.213 36.5555 196.351 36.6428 196.452 36.7155C196.554 36.7882 196.649 36.8537 196.736 36.9191C196.823 36.9919 196.845 37.0428 196.816 37.0718C196.743 37.1737 196.641 37.2973 196.503 37.4354C196.125 37.8136 195.718 38.1844 195.289 38.548C194.86 38.9116 194.38 39.2098 193.864 39.457C193.275 39.7333 192.686 39.8715 192.083 39.8715C191.48 39.8715 190.869 39.7843 190.251 39.6097C189.8 39.5079 189.306 39.3479 188.753 39.1443C187.721 38.7662 186.754 38.3517 185.86 37.9008C185.169 37.5227 184.478 37.1518 183.795 36.7882C183.104 36.4247 182.435 36.0247 181.781 35.5738C181.505 35.3702 181.228 35.1594 180.952 34.9557C180.676 34.7521 180.399 34.5412 180.123 34.3376C179.949 34.2358 179.796 34.134 179.658 34.0249C179.52 33.9231 179.382 33.8213 179.243 33.7123C179.105 33.6468 179.018 33.5886 178.982 33.5595L178.771 33.4577C178.633 33.3923 178.502 33.305 178.386 33.196C178.262 33.0941 178.153 33.0069 178.051 32.9342C177.949 32.796 177.964 32.7306 178.102 32.7306C178.378 32.8033 178.618 32.8033 178.829 32.7306C179.309 32.6287 179.672 32.3161 179.912 31.7998C180.087 31.4216 180.174 31.0362 180.174 30.6363C180.174 30.2363 180.16 29.8509 180.123 29.4728C180.087 29.0583 180.036 28.6438 179.971 28.2293C179.898 27.8148 179.832 27.4221 179.767 27.0367C179.592 26.1423 179.491 25.2333 179.454 24.3243C179.418 23.4153 179.418 22.5063 179.454 21.6119H174.387C174.249 21.6119 174.103 21.5101 173.951 21.2992C173.798 21.0956 173.682 20.9574 173.616 20.8847C173.064 20.2302 172.598 19.5903 172.22 18.9722C171.98 18.6304 171.755 18.2814 171.551 17.9396C171.348 17.5978 171.159 17.2488 170.984 16.907C170.883 16.7325 170.795 16.5798 170.723 16.4416C170.585 16.0998 170.548 15.9253 170.621 15.9253H199.368C199.506 15.9253 199.651 16.0198 199.804 16.2089C199.957 16.398 200.073 16.5289 200.138 16.5943C200.415 16.9361 200.662 17.2633 200.887 17.576C201.113 17.8887 201.324 18.2159 201.534 18.5577C202.014 19.2849 202.429 19.9684 202.778 20.6229L202.77 20.6156ZM188.709 31.5816C188.23 30.789 187.735 30.0036 187.234 29.2255C186.732 28.4474 186.194 27.7202 185.605 27.0294C185.605 27.5821 185.641 28.1275 185.707 28.6583C185.772 29.1964 185.86 29.7345 185.969 30.2872C186.034 30.7017 186.107 31.1162 186.172 31.5307C186.238 31.9452 186.274 32.3597 186.274 32.7742C186.31 33.1523 186.31 33.545 186.274 33.9377C186.238 34.3376 186.136 34.6867 185.961 34.9994C185.62 35.5157 185.096 35.7775 184.413 35.7775C184.653 35.952 184.878 36.112 185.082 36.2719C185.285 36.4247 185.511 36.5919 185.75 36.7664C185.787 36.7664 185.801 36.7737 185.801 36.7955C185.801 36.8173 185.816 36.8246 185.852 36.8246H186.368C186.543 36.8246 186.71 36.8101 186.885 36.7737C187.677 36.5992 188.368 36.2647 188.949 35.7629C189.538 35.2612 190.105 34.7376 190.658 34.1849C189.902 33.3268 189.248 32.4615 188.695 31.5961L188.709 31.5816Z" fill="#FCAF17"/>
<path d="M201.222 20.6157C201.324 20.8193 201.411 20.9938 201.484 21.132C201.622 21.4447 201.658 21.5974 201.585 21.5974H196.62C196.656 22.5282 196.663 23.4517 196.649 24.3607C196.634 25.277 196.642 26.1932 196.678 27.124C196.678 27.953 196.671 28.782 196.649 29.6037C196.634 30.4327 196.642 31.2617 196.678 32.0834C196.714 32.876 196.758 33.6832 196.809 34.5122C196.86 35.3412 196.889 36.1484 196.889 36.941C196.889 37.8354 196.867 38.7444 196.838 39.6534C196.801 40.5697 196.649 41.4714 196.373 42.3658C196.169 43.0203 195.864 43.6311 195.471 44.2056C195.071 44.7728 194.511 45.1291 193.792 45.2673H193.741L196.736 48.576L196.532 48.7796L192.657 44.591C192.068 44.1401 191.538 43.6602 191.058 43.1439L190.229 42.3149C189.953 42.0386 189.677 41.7477 189.4 41.435C189.262 41.2605 189.16 41.1223 189.088 41.0205C189.022 40.9187 188.949 40.8169 188.884 40.7078C188.819 40.606 188.797 40.5551 188.833 40.5551C189.349 40.4533 189.778 40.2424 190.127 39.937C190.469 39.6243 190.76 39.2535 190.978 38.8244C191.203 38.3954 191.378 37.9373 191.494 37.4573C191.618 36.9774 191.712 36.512 191.778 36.0611C191.916 35.1667 191.996 34.2432 192.01 33.2978C192.025 32.3525 192.003 31.4071 191.93 30.4763C191.894 29.7855 191.85 29.0874 191.799 28.382C191.749 27.6767 191.72 26.9786 191.72 26.2877V21.5828H186.499C186.361 21.5828 186.216 21.4883 186.063 21.2992C185.91 21.1102 185.794 20.9793 185.729 20.9138C185.249 20.3248 184.784 19.6704 184.333 18.9504C183.853 18.2233 183.439 17.5397 183.09 16.8852C182.988 16.7107 182.901 16.558 182.828 16.4198C182.69 16.0781 182.653 15.9035 182.726 15.9035H191.669V15.409C191.669 15.2563 191.654 15.0891 191.618 14.9146C191.618 14.8782 191.669 14.8855 191.77 14.9436C191.872 14.9945 191.989 15.0673 192.105 15.1473C192.228 15.2345 192.374 15.3291 192.541 15.4309C192.643 15.5327 192.832 15.6926 193.108 15.8963H197.812C197.95 15.8963 198.096 15.9981 198.248 16.2089C198.401 16.4126 198.517 16.5507 198.583 16.6234C198.823 16.9361 199.055 17.2561 199.281 17.5833C199.506 17.9106 199.739 18.2451 199.979 18.5941C200.182 18.9068 200.4 19.234 200.626 19.5758C200.851 19.9176 201.047 20.2666 201.222 20.6084V20.6157Z" fill="#FCAF17"/>
<path d="M219.456 33.8286L212.178 11.1841H220.168L223.804 23.2844L227.068 11.1841H234.724L227.584 33.8286V49.4777H219.456V33.8286Z" fill="#231F20"/>
<path d="M236.374 43.2821C236.374 36.4756 242.474 34.3449 247.621 32.5561V29.8146C247.621 28.3966 247.287 27.4003 246.015 27.4003C244.742 27.4003 244.357 28.3457 244.313 29.5746L244.124 31.5598L236.941 31.2762C237.225 24.7025 240.344 21.6774 246.727 21.6774C252.26 21.6774 255.001 25.0806 255.001 29.9018V42.6639C255.001 46.0672 255.241 48.1469 255.473 49.4704H248.574C248.385 48.0088 248.057 45.9217 247.963 45.5945C247.301 47.8633 245.6 49.9431 242.721 49.9431C238.562 49.9431 236.389 46.4889 236.389 43.2748L236.374 43.2821ZM247.621 43.3766V35.9084C245.069 37.37 243.317 39.028 243.317 41.7695C243.317 43.6166 244.117 44.751 245.44 44.751C246.385 44.751 247.098 44.0892 247.614 43.3766H247.621Z" fill="#231F20"/>
<path d="M259.152 41.5369V30.2364C259.152 25.1752 261.275 21.6774 265.485 21.6774C267.513 21.6774 269.36 22.5282 270.872 23.8517V11.1914H278.578V49.4777H270.872V47.3543C269.171 49.0051 267.324 49.9577 265.485 49.9577C261.42 49.9577 259.152 47.1216 259.152 41.5441V41.5369ZM270.872 44.322V27.0659C270.261 26.7314 269.505 26.455 268.887 26.455C267.469 26.455 266.902 27.7785 266.902 29.4365V42.0095C266.902 43.7111 267.418 45.0346 268.843 45.0346C269.36 45.0346 270.116 44.7947 270.872 44.3293V44.322Z" fill="#231F20"/>
<path d="M282.635 43.2821C282.635 36.4756 288.735 34.3449 293.882 32.5561V29.8146C293.882 28.3966 293.548 27.4003 292.276 27.4003C291.003 27.4003 290.618 28.3457 290.574 29.5746L290.385 31.5598L283.202 31.2762C283.486 24.7025 286.605 21.6774 292.988 21.6774C298.521 21.6774 301.262 25.0806 301.262 29.9018V42.6639C301.262 46.0672 301.502 48.1469 301.734 49.4704H294.835C294.646 48.0088 294.319 45.9217 294.224 45.5945C293.563 47.8633 291.861 49.9431 288.982 49.9431C284.824 49.9431 282.65 46.4889 282.65 43.2748L282.635 43.2821ZM293.882 43.3766V35.9084C291.331 37.37 289.578 39.028 289.578 41.7695C289.578 43.6166 290.385 44.751 291.701 44.751C292.647 44.751 293.359 44.0892 293.875 43.3766H293.882Z" fill="#231F20"/>
<path d="M303.908 22.1573H311.281L313.549 39.6025L315.628 22.1573H323L317.373 49.4777H309.383L303.901 22.1573H303.908Z" fill="#231F20"/>
<path d="M41.63 29.0656L41.6009 28.9783C41.4482 28.4839 41.281 27.9821 41.0775 27.4658C40.903 27.0222 40.7212 26.5714 40.5322 26.1132C40.4886 26.0114 40.4449 25.9096 40.4086 25.8005C40.2268 25.3788 40.0378 24.957 39.8488 24.528C39.7906 24.3971 39.7252 24.2589 39.667 24.128C39.4925 23.7426 39.3108 23.3572 39.1217 22.9718C39.049 22.8191 38.9763 22.6736 38.9109 22.5209C38.7364 22.1646 38.5692 21.8083 38.3874 21.452C38.3147 21.3065 38.242 21.1538 38.1693 21.0084L37.5295 19.7213C37.4423 19.5467 37.355 19.365 37.2605 19.1904L36.5044 17.6852C36.3663 17.4088 36.2281 17.1325 36.09 16.8562C35.9809 16.6453 35.8792 16.4271 35.7701 16.2162C35.5883 15.8454 35.4066 15.4745 35.2248 15.0891L34.9558 14.5364C34.7959 14.2019 34.6432 13.8747 34.4905 13.5402C34.4105 13.3511 34.3233 13.1693 34.2433 12.9803C34.0906 12.6458 33.9452 12.3185 33.8071 11.984C33.7489 11.8459 33.6835 11.7004 33.6253 11.5623C33.4509 11.155 33.2909 10.7478 33.131 10.3478C33.0873 10.2388 33.0437 10.1297 33.0074 10.0133C32.8474 9.58431 32.6875 9.14799 32.5493 8.7335C32.5493 8.71168 32.5348 8.69714 32.5275 8.67532C32.3821 8.22447 32.244 7.77361 32.1276 7.3373C32.1276 7.31549 32.1131 7.30094 32.1131 7.27913C31.7496 6.01382 31.5751 4.69762 31.5896 3.38141C31.5896 3.42504 31.5896 3.47595 31.5751 3.52685C31.5533 2.28336 31.8877 1.06169 32.5348 0.00727186H32.4984C27.2711 8.01359 34.5414 19.9103 36.9333 28.1421C37.893 31.4144 37.5441 33.6978 36.4971 35.1521C36.2063 35.5594 35.8501 35.9157 35.4429 36.1993L35.3339 36.272C35.1812 36.3738 35.0212 36.4684 34.854 36.5556C34.7959 36.5847 34.745 36.6138 34.6868 36.6429C34.4978 36.7301 34.3015 36.8101 34.0979 36.8756C34.0034 36.9047 33.9089 36.9265 33.8144 36.9556C33.698 36.9847 33.5817 37.021 33.4581 37.0428C33.3345 37.0646 33.2182 37.0865 33.1019 37.1083C33.0074 37.1228 32.9056 37.1301 32.8111 37.1446C32.5639 37.1737 32.3167 37.181 32.0695 37.181H31.8514C31.706 37.181 31.5533 37.1665 31.4006 37.1519L31.1607 37.1228C30.6736 37.0646 30.1865 36.9628 29.7139 36.8247C29.6121 36.7956 29.5103 36.7665 29.4158 36.7301C29.2922 36.6865 29.1613 36.6429 29.0377 36.592C28.9142 36.5411 28.776 36.4829 28.6524 36.432C28.5288 36.3811 28.3761 36.3084 28.238 36.2357C28.0781 36.1557 27.9108 36.0684 27.7582 35.9739C27.6709 35.923 27.5909 35.8721 27.511 35.8212C27.3583 35.7266 27.2056 35.6248 27.0675 35.523C27.002 35.4794 26.9439 35.4357 26.8857 35.3921C26.6822 35.2394 26.4931 35.0794 26.3114 34.9049C26.2677 34.8685 26.2314 34.8249 26.1878 34.7886C26.0424 34.6431 25.897 34.4904 25.7588 34.3304L25.6207 34.1704C25.468 33.9887 25.3299 33.7996 25.1917 33.596V33.5814C22.5889 31.0799 30.5136 27.8148 31.0807 31.8944C31.3061 33.4433 30.5718 34.934 31.5606 32.5997C32.4621 30.4327 31.4733 29.4801 30.4337 29.0511C31.9241 28.462 32.6802 27.9603 30.9717 27.364C21.5275 22.7027 22.0291 6.58103 21.1858 0.567205C20.3424 6.5883 20.8222 22.7027 11.429 27.3713C9.71315 27.9603 10.4693 28.4693 11.9597 29.0583C10.92 29.4801 9.93853 30.44 10.8328 32.607C11.8143 34.9413 11.08 33.4505 11.3126 31.9016C11.8724 27.8221 19.8044 31.0872 17.1871 33.5887V33.6032C17.0635 33.7996 16.9181 33.9959 16.7654 34.1777C16.7218 34.2286 16.6781 34.2723 16.6418 34.3232C16.4964 34.4904 16.351 34.6431 16.191 34.7958C16.1547 34.8249 16.1256 34.8613 16.0965 34.8976C15.9075 35.0722 15.7112 35.2394 15.5076 35.3921C15.4567 35.4285 15.3986 35.4721 15.3477 35.5085C15.195 35.6248 15.035 35.7266 14.8751 35.8284C14.8024 35.8793 14.7224 35.923 14.6497 35.9666C14.4752 36.0684 14.3007 36.1629 14.1263 36.2502C14.0099 36.3084 13.8936 36.3593 13.77 36.4175C13.6464 36.4756 13.4937 36.5411 13.3483 36.592C13.2029 36.6429 13.1011 36.6792 12.9775 36.7229C12.8758 36.7592 12.7667 36.7883 12.6649 36.8174C12.345 36.9119 12.0178 36.9919 11.6907 37.0501H11.6834C11.5307 37.0792 11.3781 37.0937 11.2327 37.1156C11.1527 37.1228 11.0727 37.1374 10.9855 37.1446C10.8328 37.1592 10.6874 37.1665 10.5347 37.1737H10.3239C10.0767 37.1737 9.82947 37.1592 9.58228 37.1374C9.48777 37.1228 9.38598 37.1156 9.29147 37.101C9.16787 37.0792 9.05155 37.0574 8.93522 37.0356C8.81889 37.0137 8.6953 36.9774 8.5717 36.9483C8.47719 36.9265 8.38267 36.9047 8.29543 36.8683C8.09186 36.8029 7.89556 36.7229 7.70653 36.6283C7.65564 36.6065 7.60474 36.5774 7.55385 36.5483C7.37936 36.4611 7.21942 36.3666 7.05947 36.2575C7.03039 36.2357 6.99404 36.2211 6.96495 36.192C6.55781 35.9011 6.20157 35.5448 5.91075 35.1376H5.90348C4.85655 33.6687 4.50757 31.3926 5.46726 28.1203C7.83013 19.9031 15.1005 8.00631 9.87309 0H9.84401C10.4983 1.05442 10.8328 2.27609 10.811 3.51958C10.811 3.47595 10.811 3.42504 10.7964 3.38141C10.811 4.69762 10.6365 6.01382 10.273 7.27913C10.273 7.30094 10.2584 7.31549 10.2584 7.3373C10.1421 7.78089 10.0112 8.23174 9.85128 8.68987C9.85128 8.70441 9.84401 8.71896 9.83674 8.7335C9.69861 9.16254 9.53866 9.59158 9.37144 10.0279C9.33509 10.1297 9.29147 10.2315 9.25511 10.3406C9.09517 10.7478 8.92795 11.1623 8.76073 11.5841C8.70984 11.7077 8.65168 11.8313 8.59351 11.9549C8.44083 12.3113 8.28089 12.6676 8.12094 13.0312C8.06278 13.1621 8.00461 13.293 7.93918 13.4311C7.76469 13.8093 7.58293 14.1947 7.40118 14.5728C7.32847 14.7255 7.25577 14.8855 7.17579 15.0382C6.97949 15.4454 6.7832 15.8526 6.57963 16.2599C6.49965 16.4126 6.42695 16.5726 6.34697 16.7253C6.13613 17.1398 5.93256 17.5615 5.72899 17.9833L5.71445 18.0197C5.40183 18.6305 5.09647 19.2486 4.79112 19.8594C4.60936 20.223 4.43487 20.5793 4.25311 20.9429C4.1586 21.1393 4.06408 21.3284 3.96957 21.5247C3.82416 21.8301 3.67148 22.1355 3.52608 22.4337C3.43156 22.63 3.33705 22.8264 3.24253 23.03C3.06804 23.3936 2.90083 23.7499 2.73361 24.1062L2.53731 24.5425C2.34828 24.9643 2.16652 25.3788 1.98476 25.7933C1.94114 25.9023 1.89752 26.0114 1.84663 26.1205C1.6576 26.5714 1.47584 27.0222 1.30135 27.4658C1.09778 27.9894 0.930561 28.4911 0.777883 28.9783L0.748802 29.0583C-0.479888 33.0651 -0.123641 36.0829 1.20683 38.2063C1.20683 38.2209 1.22137 38.2354 1.22865 38.2427C1.38859 38.4972 1.55581 38.7372 1.74484 38.9699L1.77392 38.9917C5.56178 43.5657 14.4825 42.8603 19.4482 38.25V38.279C19.4482 38.359 19.4409 38.439 19.4336 38.5117C19.4336 38.7299 19.4772 38.9481 19.5572 39.1589C18.8011 40.0388 18.9029 41.3696 19.7899 42.1259C19.8335 42.1622 19.8698 42.1913 19.9135 42.2277V42.2495C19.2664 42.9258 19.2664 43.9875 19.9135 44.6637V53.9426C18.9683 54.648 18.772 55.986 19.4772 56.9314C20.1825 57.8767 21.5202 58.073 22.4653 57.3677C23.4105 56.6623 23.6068 55.3243 22.9016 54.3789C22.778 54.2117 22.6326 54.0662 22.4653 53.9426V44.6565C23.1051 43.9875 23.1051 42.9258 22.4653 42.2495V42.2277C23.4032 41.5368 23.6068 40.2134 22.9088 39.2753C22.8798 39.2389 22.8507 39.2026 22.8216 39.1589C22.9016 38.9553 22.9452 38.7372 22.9452 38.5117C22.9452 38.4318 22.9307 38.3518 22.9234 38.279L22.9379 38.25C27.9036 42.8676 36.8316 43.573 40.6194 38.9917C40.6194 38.9917 40.634 38.9844 40.6412 38.9771C40.823 38.7517 40.9902 38.5117 41.1502 38.2645L41.1938 38.1991C41.3537 37.9445 41.4919 37.6755 41.6227 37.4064C41.6227 37.3919 41.63 37.3846 41.6373 37.3701C41.7681 37.0865 41.8772 36.7956 41.9717 36.4974C41.9717 36.4829 41.979 36.4684 41.9862 36.4538C42.088 36.1339 42.168 35.7993 42.2262 35.4721V35.4358C42.5388 33.2978 42.3425 31.109 41.6373 29.0656" fill="#C32126"/>
</g>
<defs>
<clipPath id="clip0_389_5352">
<rect width="323" height="91" fill="white"/>
</clipPath>
</defs>
</svg>
